<svg height="511pt" viewBox="1 -73 511.99962 511" width="511pt" xmlns="http://www.w3.org/2000/svg"><path d="m8.679688 78.601562c-4.792969 0-8.679688-3.886718-8.679688-8.679687v-52.066406c0-4.792969 3.886719-8.675781 8.679688-8.675781 4.789062 0 8.675781 3.882812 8.675781 8.675781v52.066406c0 4.792969-3.886719 8.679687-8.675781 8.679687zm0 0" fill="#e4e4e2"/><path d="m43.390625 78.601562c-4.792969 0-8.679687-3.886718-8.679687-8.679687v-52.066406c0-4.792969 3.886718-8.675781 8.679687-8.675781s8.675781 3.882812 8.675781 8.675781v52.066406c0 4.792969-3.882812 8.679687-8.675781 8.679687zm0 0" fill="#e4e4e2"/><path d="m78.101562 78.601562c-4.792968 0-8.675781-3.886718-8.675781-8.679687v-52.066406c0-4.792969 3.882813-8.675781 8.675781-8.675781 4.792969 0 8.679688 3.882812 8.679688 8.675781v52.066406c0 4.792969-3.886719 8.679687-8.679688 8.679687zm0 0" fill="#e4e4e2"/><path d="m425.21875 200.058594c0 91.0625-73.820312 164.882812-164.878906 164.882812-91.0625 0-164.882813-73.820312-164.882813-164.882812s73.820313-164.882813 164.882813-164.882813c91.058594 0 164.878906 73.820313 164.878906 164.882813zm0 0" fill="#e4e4e2"/><path d="m390.507812 200.058594c0 71.890625-58.277343 130.167968-130.167968 130.167968s-130.171875-58.277343-130.171875-130.167968 58.28125-130.167969 130.171875-130.167969 130.167968 58.277344 130.167968 130.167969zm0 0" fill="#ea9d2d"/><path d="m247.589844 281.386719 23.164062 11.960937c12.769532 6.605469 28.476563 1.609375 35.082032-11.160156 8.507812 4.417969 18.984374 1.109375 23.40625-7.394531.007812-.019531.015624-.035157.027343-.050781l3.988281-7.707032c8.507813 4.421875 18.984376 1.109375 23.40625-7.394531.007813-.019531.015626-.035156.027344-.050781 4.398438-8.515625 1.066406-18.984375-7.445312-23.386719l-15.414063-7.976563-30.972656-15.941406zm0 0" fill="#6b9777"/><path d="m43.390625 130.667969c-23.953125-.027344-43.3632812-19.4375-43.390625-43.386719v-17.359375c0-4.789063 3.886719-8.675781 8.679688-8.675781h69.421874c4.792969 0 8.679688 3.886718 8.679688 8.675781v17.359375c-.03125 23.949219-19.441406 43.359375-43.390625 43.386719zm0 0" fill="#e4e4e2"/><path d="m43.390625 347.617188c-9.585937 0-17.355469-7.769532-17.355469-17.355469v-216.949219h34.710938v216.949219c0 9.585937-7.769532 17.355469-17.355469 17.355469zm0 0" fill="#e4e4e2"/><path d="m359.214844 204.308594c20.265625-39.171875.503906-89.632813-44.117188-112.707032-39.617187-20.488281-85.460937-12.453124-109.4375 17.007813-15.660156 16.769531-26.652344 37.355469-31.875 59.695313-13.683594 56.085937 8.789063 109.023437 50.183594 118.289062 30.121094 6.71875 61.910156-11.636719 82.292969-43.710938 22.601562-4.128906 42.089843-18.328124 52.953125-38.574218zm0 0" fill="#985713"/><path d="m189.449219 125.117188c0 9.582031-7.769531 17.355468-17.355469 17.355468s-17.355469-7.773437-17.355469-17.355468c0-9.585938 7.769531-17.359376 17.355469-17.359376s17.355469 7.773438 17.355469 17.359376zm0 0" fill="#c7463b"/><path d="m173.5 155.949219c0 9.585937-7.773438 17.355469-17.359375 17.355469-9.582031 0-17.355469-7.769532-17.355469-17.355469 0-9.585938 7.773438-17.355469 17.355469-17.355469 9.585937 0 17.359375 7.769531 17.359375 17.355469zm0 0" fill="#f55648"/><path d="m165.261719 190.765625c0 9.585937-7.769531 17.355469-17.355469 17.355469s-17.355469-7.769532-17.355469-17.355469 7.769531-17.355469 17.355469-17.355469 17.355469 7.769532 17.355469 17.355469zm0 0" fill="#6b9777"/><g fill="#834b10"><path d="m273.085938 118.730469 46.261718 23.914062c4.257813 2.203125 9.496094.535157 11.699219-3.722656s.535156-9.496094-3.722656-11.699219l-46.253907-23.914062c-4.257812-2.203125-9.496093-.535156-11.699218 3.722656-2.199219 4.257812-.535156 9.496094 3.722656 11.699219zm0 0"/><path d="m334.492188 170.015625-92.5-47.84375c-4.257813-2.199219-9.5-.53125-11.699219 3.730469-2.203125 4.257812-.535157 9.5 3.726562 11.699218l92.496094 47.84375c4.261719 2.203126 9.5.53125 11.703125-3.726562 2.203125-4.261719.535156-9.5-3.726562-11.703125zm0 0"/><path d="m318.550781 200.847656-92.5-47.832031c-4.257812-2.203125-9.5-.535156-11.699219 3.726563-2.203124 4.261718-.535156 9.5 3.726563 11.703124l92.496094 47.824219c4.261719 2.203125 9.496093.535157 11.699219-3.722656 2.203124-4.257813.535156-9.496094-3.722657-11.699219zm0 0"/><path d="m279.484375 219.722656-69.425781-35.875c-4.257813-2.203125-9.496094-.535156-11.699219 3.722656-2.199219 4.257813-.535156 9.496094 3.722656 11.699219l69.382813 35.875c4.257812 2.203125 9.496094.535157 11.695312-3.722656 2.203125-4.257813.539063-9.496094-3.722656-11.699219zm0 0"/><path d="m248.121094 242.613281-38.546875-19.957031c-4.257813-2.203125-9.496094-.535156-11.699219 3.722656-2.203125 4.257813-.535156 9.496094 3.722656 11.699219l38.546875 19.957031c4.261719 2.203125 9.5.535156 11.703125-3.726562 2.203125-4.261719.535156-9.5-3.726562-11.703125zm0 0"/></g><path d="m485.964844 356.296875c-14.375 0-26.03125-11.65625-26.03125-26.035156v-84.765625c0-12.75 2.972656-25.324219 8.675781-36.726563v-26.03125l-17.355469-26.035156v-104.136719c0-28.753906 23.3125-52.066406 52.066406-52.066406v208.269531c5.710938 11.414063 8.679688 24 8.679688 36.761719v84.730469c0 14.378906-11.65625 26.035156-26.035156 26.035156zm0 0" fill="#e4e4e2"/><path d="m485.964844 356.296875c-14.375 0-26.03125-11.65625-26.03125-26.035156v-84.765625c0-12.75 2.972656-25.324219 8.675781-36.726563h34.710937c5.710938 11.414063 8.679688 24 8.679688 36.761719v84.730469c0 14.378906-11.65625 26.035156-26.035156 26.035156zm0 0" fill="#a88e74"/><path d="m26.035156 208.769531h34.710938v121.492188c0 9.585937-7.769532 17.355469-17.355469 17.355469s-17.355469-7.769532-17.355469-17.355469zm0 0" fill="#a88e74"/></svg>