<svg height="512pt" viewBox="0 0 512 512" width="512pt" xmlns="http://www.w3.org/2000/svg"><path d="m512 256.011719c0 112.808593-72.972656 208.5625-174.289062 242.660156-6.101563 2.054687-12.421876-2.429687-12.421876-8.863281 0-58.039063-47.054687-105.089844-105.097656-105.089844h-172.839844c-8.058593 0-15.402343-4.539062-19.089843-11.699219-17.984375-34.925781-28.1757815-74.519531-28.261719-116.488281-.277344-140.703125 113.667969-253.839844 252.617188-256.484375 142.921874-2.71875 259.382812 113.460937 259.382812 255.964844zm0 0" fill="#fc6930"/><path d="m340 375.007812v122.875c-26.316406 9.136719-54.574219 14.117188-84 14.117188-100.421875 0-187.324219-57.828125-229.257812-141.992188h308.257812c2.761719 0 5 2.238282 5 5zm0 0" fill="#73d37a"/><path d="m309.996094 39.445312v191.992188c0 44.179688-35.816406 79.996094-80 79.996094h-223.960938c-3.941406-17.847656-6.035156-36.390625-6.035156-55.421875 0-84.3125 40.769531-159.097657 103.664062-205.738281h38.464844c18.984375 0 34.371094-15.386719 34.371094-34.371094 0-1.949219 1.257812-3.6875 3.121094-4.269532 24.121094-7.53125 49.773437-11.6093745 76.378906-11.6093745 15.625 0 30.921875 1.4062505 45.773438 4.0859375 5.257812 10.660156 8.222656 22.648437 8.222656 35.335937zm0 0" fill="#607882"/><path d="m294.996094 39.445312v40.574219c0 5.523438-4.476563 10-10 10h-223.867188c12.628906-14.804687 26.921875-28.140625 42.574219-39.746093h37.882813c19.28125 0 34.914062-15.632813 34.914062-34.914063 0-1.621094 1.042969-3.066406 2.589844-3.554687 24.277344-7.640626 50.109375-11.7812505 76.910156-11.7812505 9 0 17.890625.4726565 26.648438 1.3789065 7.757812 10.703125 12.347656 23.84375 12.347656 38.042968zm-10 70.574219h-239.285156c-28.808594 41.410157-45.710938 91.726563-45.710938 145.992188 0 13.757812 1.097656 27.253906 3.1875 40.421875h226.808594c35.898437 0 65-29.101563 65-64.996094v-111.417969c0-5.523437-4.476563-10-10-10zm0 0" fill="#495959"/><path d="m307.523438 447.667969c0 23.257812-7.375 44.789062-19.910157 62.390625-10.359375 1.273437-20.910156 1.941406-31.613281 1.941406-62.253906 0-119.308594-22.226562-163.683594-59.171875-.082031-1.707031-.128906-3.429687-.128906-5.160156 0-59.460938 48.207031-107.660157 107.667969-107.660157 59.464843 0 107.667969 48.203126 107.667969 107.660157zm0 0" fill="#e1ebf0"/><path d="m174.097656 343.117188c-34.773437 19.472656-58.570312 58.980468-58.570312 104.550781 0 8.167969.777344 16.136719 2.234375 23.832031-8.875-5.703125-17.367188-11.941406-25.441407-18.667969-.082031-1.710937-.132812-3.429687-.132812-5.164062 0-50.582031 34.886719-93.007813 81.910156-104.550781zm0 0" fill="#b4d2d7"/><path d="m284.933594 447.667969c0 25.703125-11.414063 48.726562-29.429688 64.324219-50.511718-.09375-97.589844-14.816407-137.222656-40.15625-2.269531-7.664063-3.503906-15.769532-3.503906-24.167969 0-46.984375 38.089844-85.074219 85.078125-85.074219s85.078125 38.089844 85.078125 85.074219zm0 0" fill="#d73131"/><path d="m259.296875 444.816406c-2.332031 14-9.980469 26.253906-21.53125 34.503906-9.5 6.785157-21.074219 9.46875-32.589844 7.546876-11.519531-1.917969-21.597656-8.207032-28.386719-17.707032-5.613281-7.863281-7.832031-17.4375-6.242187-26.96875 1.585937-9.527344 6.792969-17.871094 14.652344-23.484375 6.550781-4.679687 14.53125-6.523437 22.46875-5.203125 7.941406 1.324219 14.890625 5.660156 19.570312 12.207032 3.925781 5.5 5.480469 12.203124 4.367188 18.871093-1.109375 6.667969-4.753907 12.503907-10.253907 16.433594-4.660156 3.328125-10.339843 4.644531-15.992187 3.703125-5.648437-.941406-10.59375-4.027344-13.925781-8.6875-2.847656-3.992188-3.972656-8.851562-3.167969-13.6875.804687-4.839844 3.449219-9.070312 7.4375-11.921875 2.695313-1.925781 6.441406-1.300781 8.371094 1.398437 1.925781 2.695313 1.300781 6.441407-1.394531 8.367188-1.382813.988281-2.296876 2.453125-2.578126 4.128906-.277343 1.675782.113282 3.359375 1.097657 4.742188 1.46875 2.050781 3.648437 3.410156 6.136719 3.824218 2.488281.414063 4.988281-.164062 7.042968-1.628906 2.890625-2.066406 4.808594-5.136718 5.390625-8.640625.585938-3.507812-.230469-7.03125-2.296875-9.925781-2.816406-3.941406-6.996094-6.550781-11.777344-7.34375-4.773437-.796875-9.578124.3125-13.519531 3.128906-5.253906 3.753906-8.730469 9.324219-9.792969 15.691406-1.0625 6.371094.421876 12.769532 4.175782 18.023438 4.921875 6.890625 12.234375 11.453125 20.589844 12.847656 8.355468 1.390625 16.753906-.550781 23.644531-5.476562 8.941406-6.386719 14.863281-15.871094 16.667969-26.710938 1.808593-10.839844-.714844-21.730468-7.105469-30.675781-16.960938-23.742187-50.078125-29.261719-73.824219-12.300781-14.707031 10.5-24.441406 26.101562-27.414062 43.925781-2.527344 15.179687.121093 30.414063 7.445312 43.683594h-.003906c-1.292969-.613281-2.582032-1.242188-3.863282-1.875-.265624-.128907-.527343-.261719-.792968-.394531-4.078125-2.035157-8.097656-4.171876-12.050782-6.414063-.003906 0-.003906 0-.003906 0-3.722656-11.808594-4.65625-24.40625-2.5625-36.972656 3.496094-20.984375 14.957032-39.351563 32.273438-51.71875 29.128906-20.808594 69.757812-14.039063 90.566406 15.09375 8.246094 11.546875 11.503906 25.617187 9.171875 39.617187zm0 0" fill="#a62b2b"/><path d="m220 40.023438c0-16.570313 13.429688-30 30-30s30 13.429687 30 30c0 16.566406-13.429688 30-30 30s-30-13.433594-30-30zm25 79.996093c-19.328125 0-35 15.667969-35 34.996094 0 19.332031 15.671875 35 35 35s35-15.667969 35-35c0-19.328125-15.671875-34.996094-35-34.996094zm0 0" fill="#fdbf43"/><path d="m240 40.023438c0 16.566406-13.429688 30-30 30s-30-13.433594-30-30c0-16.570313 13.429688-30 30-30s30 13.429687 30 30zm0 0" fill="#fcb30b"/><path d="m143.457031 26.039062c11.59375-5.683593 23.675781-10.523437 36.171875-14.425781 11.84375 4.011719 20.371094 15.210938 20.371094 28.410157 0 16.566406-13.429688 30-30 30s-30-13.433594-30-30c0-5.050782 1.253906-9.804688 3.457031-13.984376zm0 0" fill="#fdbf43"/><path d="m102.21875 51.351562c15.777344-11.871093 32.972656-21.953124 51.28125-29.960937 4.066406 5.117187 6.5 11.589844 6.5 18.632813 0 16.570312-13.429688 30-30 30-12.558594 0-23.308594-7.722657-27.78125-18.671876zm0 0" fill="#fcb30b"/><path d="m265 40.023438c0 8.285156-6.714844 15-15 15-4.652344 0-8.8125-2.121094-11.5625-5.445313 1.007812-3.003906 1.5625-6.214844 1.5625-9.554687 0-3.34375-.554688-6.550782-1.5625-9.554688 2.75-3.324219 6.910156-5.445312 11.5625-5.445312 8.285156 0 15 6.714843 15 15zm-55-15c-4.652344 0-8.808594 2.117187-11.558594 5.441406 1.007813 3.003906 1.558594 6.214844 1.558594 9.558594 0 3.339843-.554688 6.550781-1.5625 9.554687 2.75 3.324219 6.910156 5.445313 11.5625 5.445313 8.285156 0 15-6.714844 15-15 0-8.285157-6.714844-15-15-15zm-40 0c-4.652344 0-8.8125 2.121093-11.5625 5.445312 1.007812 3.003906 1.5625 6.210938 1.5625 9.554688 0 3.339843-.554688 6.550781-1.5625 9.554687 2.75 3.324219 6.910156 5.445313 11.5625 5.445313 8.285156 0 15-6.714844 15-15 0-8.285157-6.714844-15-15-15zm-30.824219 3.152343c-8.273437 4.253907-16.277343 8.953125-23.996093 14.046875 1.066406 7.238282 7.285156 12.800782 14.820312 12.800782 8.285156 0 15-6.714844 15-15 0-4.824219-2.285156-9.105469-5.824219-11.847657zm0 0" fill="#fc9302"/><path d="m162.015625 275.878906c-19.617187-7.40625-29.511719-29.308594-22.105469-48.925781 2.851563-7.546875 7.851563-13.644531 14.039063-17.882813-.515625-2.039062-.871094-4.125-1.042969-6.238281-18.507812-7.988281-27.644531-29.199219-20.449219-48.253906 7.40625-19.613281 29.3125-29.507813 48.925781-22.101563 14.183594 5.355469 23.28125 18.292969 24.433594 32.460938 18.507813 7.984375 27.644532 29.195312 20.449219 48.25-2.847656 7.546875-7.851563 13.648438-14.039063 17.886719 1.84375 7.269531 1.5625 15.152343-1.285156 22.699219-7.40625 19.617187-29.3125 29.511718-48.925781 22.105468zm0 0" fill="#49cb5c"/><path d="m212.015625 275.878906c-19.617187-7.40625-29.511719-29.308594-22.105469-48.925781 2.851563-7.546875 7.851563-13.644531 14.039063-17.882813-.515625-2.039062-.871094-4.125-1.042969-6.238281-18.507812-7.988281-27.644531-29.199219-20.449219-48.253906 7.40625-19.613281 29.3125-29.507813 48.925781-22.101563 14.183594 5.355469 23.28125 18.292969 24.433594 32.460938 18.507813 7.984375 27.644532 29.195312 20.449219 48.25-2.847656 7.546875-7.851563 13.648438-14.039063 17.886719 1.84375 7.269531 1.5625 15.152343-1.285156 22.699219-7.40625 19.617187-29.3125 29.511718-48.925781 22.105468zm0 0" fill="#8fdc91"/><path d="m266.59375 163.011719c-2.738281 4.960937-6.515625 9.910156-10.917969 14.316406-3.585937 3.582031-9.402343 3.585937-12.988281 0-3.582031-3.585937-3.585938-9.398437 0-12.984375 3.203125-3.203125 5.914062-6.730469 7.832031-10.207031 2.449219-4.4375 8.035157-6.050781 12.472657-3.601563.773437.429688 1.464843.953125 2.058593 1.546875 2.820313 2.820313 3.566407 7.265625 1.542969 10.929688zm-62.15625-11.03125c-3.664062-2.023438-8.109375-1.277344-10.925781 1.539062-.597657.597657-1.121094 1.285157-1.546875 2.058594-2.453125 4.441406-.839844 10.023437 3.597656 12.476563 3.476562 1.917968 7.007812 4.625 10.210938 7.828124 3.585937 3.585938 9.398437 3.585938 12.984374 0 3.585938-3.585937 3.585938-9.398437 0-12.984374-4.40625-4.40625-9.359374-8.179688-14.320312-10.917969zm40.316406 40.308593c-3.667968-2.019531-8.113281-1.273437-10.929687 1.542969-.597657.597657-1.121094 1.285157-1.546875 2.058594-2.449219 4.441406-.839844 10.023437 3.601562 12.476563 3.472656 1.917968 7.003906 4.625 10.207032 7.828124 3.585937 3.585938 9.398437 3.585938 12.984374 0 3.585938-3.585937 3.585938-9.402343 0-12.984374-4.40625-4.40625-9.355468-8.179688-14.316406-10.921876zm-50.429687 31.230469c-4.402344 4.402344-8.179688 9.355469-10.917969 14.316407-2.023438 3.664062-1.277344 8.109374 1.542969 10.929687.59375.59375 1.285156 1.117187 2.058593 1.546875 4.4375 2.449219 10.023438.835938 12.472657-3.601562 1.917969-3.476563 4.628906-7.003907 7.832031-10.207032 3.582031-3.585937 3.582031-9.398437 0-12.984375-3.585938-3.585937-9.402344-3.582031-12.988281 0zm0 0" fill="#0ca12d"/><path d="m180 205.015625c0 41.417969-33.578125 74.996094-75 74.996094h-30c-35.289062 0-64.867188-24.378907-72.859375-57.207031 1.683594-13.003907 4.316406-25.710938 7.878906-38.023438 3.273438-11.316406 7.332031-22.296875 12.066407-32.910156 13.5625-13.503906 32.261718-21.851563 52.914062-21.851563h30c41.421875 0 75 33.578125 75 74.996094zm0 0" fill="#a96a51"/><path d="m105.148438 280.011719h-10.296876c-41.339843 0-74.851562-33.511719-74.851562-74.851563v-.292968c0-41.335938 33.511719-74.847657 74.851562-74.847657h10.296876c41.339843 0 74.851562 33.507813 74.851562 74.847657v.292968c0 41.339844-33.511719 74.851563-74.851562 74.851563zm0 0" fill="#bb7c63"/><path d="m52.332031 161.265625c0-4.140625 3.359375-7.5 7.5-7.5h80.332031c4.144532 0 7.5 3.359375 7.5 7.5 0 4.144531-3.355468 7.5-7.5 7.5h-80.332031c-4.140625 0-7.5-3.355469-7.5-7.5zm87.835938 79.996094h-80.335938c-4.140625 0-7.5 3.359375-7.5 7.5 0 4.144531 3.359375 7.5 7.5 7.5h80.332031c4.144532 0 7.5-3.355469 7.5-7.5.003907-4.140625-3.355468-7.5-7.496093-7.5zm-89-43.328125h97.667969c4.140624 0 7.5-3.359375 7.5-7.5 0-4.144532-3.359376-7.5-7.5-7.5h-97.667969c-4.144531 0-7.5 3.355468-7.5 7.5 0 4.140625 3.355469 7.5 7.5 7.5zm106.332031 14.164062h-115c-4.140625 0-7.5 3.359375-7.5 7.5s3.359375 7.5 7.5 7.5h115c4.140625 0 7.5-3.359375 7.5-7.5s-3.359375-7.5-7.5-7.5zm0 0" fill="#6d4336"/><path d="m460 121.957031v92.480469c0 21.757812-12.417969 40.605469-30.546875 49.875v198.464844c0 9.011718-7.039063 16.492187-16.042969 16.945312-3.648437.183594-7.324218.277344-11.019531.277344-2.527344 0-5.042969-.042969-7.550781-.132812-9.101563-.316407-16.292969-7.847657-16.292969-16.957032v-198.597656c-18.128906-9.269531-30.546875-28.117188-30.546875-49.875v-92.480469c0-2.34375 1.898438-4.242187 4.242188-4.242187 12.652343 0 22.910156 10.257812 22.910156 22.910156v62.785156c0 4.214844 3.417968 7.632813 7.632812 7.632813 4.21875 0 7.636719-3.417969 7.636719-7.632813v-63.851562c0-8.308594 4.28125-16.03125 11.328125-20.4375 1.378906-.859375 3.117188-.859375 4.496094 0 7.046875 4.40625 11.328125 12.128906 11.328125 20.4375v63.851562c0 4.214844 3.417969 7.632813 7.636719 7.632813 4.214843 0 7.636718-3.417969 7.636718-7.632813v-62.785156c0-12.652344 10.253906-22.910156 22.90625-22.910156 2.347656 0 4.246094 1.898437 4.246094 4.242187zm0 0" fill="#fff2b4"/><path d="m405.648438 479.976562c-1.082032.015626-2.171876.023438-3.257813.023438-2.527344 0-5.042969-.042969-7.550781-.132812-9.101563-.316407-16.292969-7.847657-16.292969-16.957032v-198.597656c-18.128906-9.269531-30.546875-28.117188-30.546875-49.875v-92.480469c0-2.34375 1.898438-4.242187 4.242188-4.242187 12.183593 0 22.136718 9.511718 22.863281 21.507812v56.550782s.015625 4.882812.046875 5.621093c0 0 .113281 3.519531.324218 4.21875 1.652344 14.363281 8.734376 27.070313 19.144532 36.015625 6.9375 5.964844 11.027344 14.582032 11.027344 23.730469zm0 0" fill="#ffe899"/></svg>