<svg height="512" viewBox="0 0 64 64" width="512" xmlns="http://www.w3.org/2000/svg"><path d="m60.07 31.32a22.026 22.026 0 0 1 -31.93 12.82c-.61-.35-1.2-.72-1.76-1.11a22.048 22.048 0 0 1 -9.39-18.03 19.269 19.269 0 0 1 .1-2 21.674 21.674 0 0 1 .5-3.06h.01a4.171 4.171 0 0 0 1.37.6c2.66.72 3.11-.98 5.78-.27 2.65.71 2.2 2.41 4.86 3.12a4.218 4.218 0 0 0 2.6-.05 6.989 6.989 0 0 0 13.5 3.61 4.268 4.268 0 0 0 2.23 1.36c2.66.71 3.11-.99 5.77-.28s2.21 2.41 4.86 3.13a4.644 4.644 0 0 0 1.49.16z" fill="#ffc477"/><path d="m24.75 20.27c-2.67-.71-3.12.99-5.78.27a4.171 4.171 0 0 1 -1.37-.6h-.01c.05-.21.1-.42.16-.63a22 22 0 0 1 42.5 11.38l-.18.63h-.01a4.644 4.644 0 0 1 -1.49-.16c-2.65-.72-2.2-2.42-4.86-3.13s-3.11.99-5.77.28a4.268 4.268 0 0 1 -2.23-1.36.578.578 0 0 0 .05-.14 7 7 0 0 0 -13.52-3.62.8.8 0 0 0 -.03.15 4.218 4.218 0 0 1 -2.6.05c-2.66-.71-2.21-2.41-4.86-3.12z" fill="#ffa733"/><path d="m23.9 41h-18.44l.92 12h19.24l.76-9.97.16-2.03z" fill="#e6e7e8"/><path d="m25.62 53-.62 8h-18l-.62-8z" fill="#00ccb3"/><path d="m19.4 35h-14.4l.46 6h18.44 2.64l.46-6z" fill="#00ccb3"/><path d="m28 29h-10.64-13.36-1v6h2 14.4 7.6 2v-6z" fill="#d1d3d4"/><path d="m26 25h-9.01-10.99l-2 4h13.36 10.64z" fill="#e6e7e8"/><path d="m29 33v2h-.15z" fill="#ffb655"/><path d="m58.92 13.5a23 23 0 0 0 -42.136 5.552 23.091 23.091 0 0 0 -.76 4.948h-10.024a1 1 0 0 0 -.895.553l-1.723 3.447h-.382a1 1 0 0 0 -1 1v6a1 1 0 0 0 1 1h1.074l1.926 25.077a1 1 0 0 0 1 .923h18a1 1 0 0 0 1-.923l1.255-16.31a23 23 0 0 0 31.665-31.267zm-30.42-6.688a20.992 20.992 0 0 1 30.816 23.472 4.175 4.175 0 0 1 -.483-.094 3.517 3.517 0 0 1 -1.949-1.269 5.745 5.745 0 0 0 -6.363-1.706 3.523 3.523 0 0 1 -2.323.125 3.213 3.213 0 0 1 -1.378-.7 7.989 7.989 0 0 0 -15.412-4.129 3.214 3.214 0 0 1 -1.544-.081 3.506 3.506 0 0 1 -1.948-1.27 5.748 5.748 0 0 0 -6.364-1.7 3.526 3.526 0 0 1 -2.322.125 4.289 4.289 0 0 1 -.466-.161 20.856 20.856 0 0 1 9.736-12.612zm16.3 19.741a6 6 0 1 1 -4.247-7.353 6.009 6.009 0 0 1 4.247 7.353zm-38.182-.553h18.764l1 2h-20.764zm-2.618 4h24v4h-24zm2.542 12h18.916l-.769 10h-17.378zm19.378-6-.308 4h-19.224l-.308-4zm-17.994 24-.461-6h17.07l-.461 6zm41.574-16.812a20.958 20.958 0 0 1 -22.076-.678l.5-6.51h1.076a1 1 0 0 0 1-1v-6a1 1 0 0 0 -1-1h-.382l-1.718-3.447a1 1 0 0 0 -.9-.553h-7.976a20.923 20.923 0 0 1 .3-2.626c.131.045.249.1.389.136a5.459 5.459 0 0 0 3.444-.15 3.758 3.758 0 0 1 4.282 1.146 5.464 5.464 0 0 0 2.909 1.854 5.777 5.777 0 0 0 1.5.212c.061 0 .107-.014.166-.016a7.987 7.987 0 0 0 15.106 4.052 5.579 5.579 0 0 0 1.56.664 5.451 5.451 0 0 0 3.445-.151 3.763 3.763 0 0 1 4.283 1.149 5.467 5.467 0 0 0 2.907 1.852c.138.036.268.055.4.082a20.831 20.831 0 0 1 -9.215 10.984z"/><path d="m27.379 10.5h4.243v2h-4.243z" transform="matrix(.707 -.707 .707 .707 .509 24.228)"/><path d="m40.5 10.379h2v4.243h-2z" transform="matrix(.707 -.707 .707 .707 3.316 33.006)"/><path d="m46.586 9h2.828v2h-2.828z" transform="matrix(.707 -.707 .707 .707 6.988 36.87)"/><path d="m48 16h2v2h-2z"/><path d="m34 13h2v2h-2z"/><path d="m52.379 20.5h4.243v2h-4.243z" transform="matrix(.707 -.707 .707 .707 .76 44.835)"/><path d="m26.5 15.379h2v4.243h-2z" transform="matrix(.707 -.707 .707 .707 -4.32 24.571)"/><path d="m36 6h2v2h-2z"/></svg>