<?xml version="1.0" encoding="iso-8859-1"?>
<!-- Generator: Adobe Illustrator 19.0.0, SVG Export Plug-In . SVG Version: 6.00 Build 0)  -->
<svg version="1.1" id="Capa_1" xmlns="http://www.w3.org/2000/svg" xmlns:xlink="http://www.w3.org/1999/xlink" x="0px" y="0px"
	 viewBox="0 0 512 512" style="enable-background:new 0 0 512 512;" xml:space="preserve">
<rect x="277.785" y="161.097" transform="matrix(-0.7071 0.7071 -0.7071 -0.7071 705.8742 251.4997)" style="fill:#E1EFFB;" width="46.13" height="221.688"/>
<rect x="297.194" y="153.054" transform="matrix(-0.7071 0.7071 -0.7071 -0.7071 713.9172 232.0814)" style="fill:#CCDFED;" width="23.399" height="221.688"/>
<path style="fill:#927266;" d="M266.387,384.073H62.164c-4.853,0-8.786,3.934-8.786,8.786v54.883h221.796v-54.883
	C275.174,388.007,271.24,384.073,266.387,384.073z"/>
<rect x="102.009" y="105.078" transform="matrix(-0.7071 0.7071 -0.7071 -0.7071 458.1005 146.5528)" style="fill:#FF6D3A;" width="193.378" height="126.149"/>
<path style="fill:#ED5729;" d="M222.472,55.183l-38.339,38.339l38.264,38.264c14.297,14.297,14.297,37.478,0,51.775l-72.515,72.515
	l25.048,25.048l136.742-136.742L222.472,55.183z"/>
<g>
	<path style="fill:#FF4C4C;" d="M186.138,303.468l-13.83,13.83c-4.594,4.594-12.042,4.594-16.636,0L49.556,211.183
		c-4.594-4.594-4.594-12.042,0-16.636l13.83-13.83c4.594-4.594,12.042-4.594,16.636,0l106.116,106.116
		C190.732,291.426,190.732,298.874,186.138,303.468z"/>
	<path style="fill:#FF4C4C;" d="M346.225,143.381l-13.83,13.83c-4.594,4.594-12.042,4.594-16.636,0L209.643,51.096
		c-4.594-4.594-4.594-12.042,0-16.636l13.83-13.83c4.594-4.594,12.042-4.594,16.636,0l106.116,106.116
		C350.819,131.339,350.819,138.787,346.225,143.381z"/>
</g>
<g>
	<path style="fill:#F33939;" d="M346.225,126.745L240.109,20.629c-4.594-4.594-12.042-4.594-16.636,0l-13.83,13.83
		c-0.123,0.123-0.229,0.256-0.346,0.382c4.616-4.232,11.782-4.125,16.253,0.346l106.116,106.116
		c4.471,4.471,4.577,11.638,0.346,16.253c0.127-0.116,0.26-0.223,0.382-0.346l13.83-13.83
		C350.819,138.787,350.819,131.339,346.225,126.745z"/>
	<path style="fill:#F33939;" d="M186.14,286.83L80.024,180.715c-4.594-4.594-12.042-4.594-16.636,0l-13.83,13.83
		c-0.123,0.123-0.229,0.256-0.346,0.382c4.616-4.232,11.782-4.125,16.253,0.346l106.116,106.116
		c4.471,4.471,4.577,11.638,0.346,16.253c0.127-0.116,0.26-0.223,0.382-0.346l13.83-13.83
		C190.734,298.873,190.734,291.424,186.14,286.83z"/>
</g>
<path style="fill:#2D5872;" d="M500.952,434.887l-37.138,37.138c-4.38,4.38-11.481,4.38-15.861,0L342.658,366.73
	c-4.38-4.38-4.38-11.481,0-15.861l37.138-37.138c4.38-4.38,11.481-4.38,15.861,0l105.295,105.295
	C505.332,423.406,505.332,430.507,500.952,434.887z"/>
<path style="fill:#1D4859;" d="M500.952,419.026L395.657,313.731c-4.38-4.38-11.481-4.38-15.861,0l-37.138,37.138l-0.001,0.001
	l14.11-14.11c4.38-4.38,11.481-4.38,15.861,0l105.295,105.295c4.38,4.38,4.38,11.481,0,15.861l-14.11,14.11l0.001-0.001
	l37.138-37.138C505.332,430.507,505.332,423.406,500.952,419.026z"/>
<path style="fill:#82635A;" d="M266.387,384.073H226.98l-0.057,35.456c-0.011,6.893-5.602,12.475-12.495,12.475H53.378v15.738
	h221.796v-54.883C275.174,388.007,271.24,384.073,266.387,384.073z"/>
<path style="fill:#927266;" d="M294.831,441.53H33.721c-14.336,0-25.958,11.622-25.958,25.958v22.104
	c0,2.886,2.339,5.225,5.225,5.225h302.575c2.886,0,5.225-2.339,5.225-5.225v-22.104C320.788,453.152,309.167,441.53,294.831,441.53z
	"/>
<path style="fill:#82635A;" d="M320.759,466.322c-0.61-13.795-11.983-24.792-25.928-24.792H272l-0.056,35.232
	c-0.007,4.175-3.393,7.556-7.568,7.556H12.988c-2.886,0-5.225-2.339-5.225-5.225v10.499c0,2.886,2.339,5.225,5.225,5.225h302.575
	c0.346,0,0.683-0.037,1.01-0.102c0.129-0.025,0.248-0.072,0.374-0.107c0.189-0.053,0.379-0.101,0.559-0.173
	c0.162-0.065,0.311-0.15,0.464-0.231c0.125-0.066,0.253-0.126,0.372-0.202c0.178-0.112,0.34-0.242,0.502-0.374
	c0.075-0.062,0.153-0.119,0.225-0.185c0.179-0.163,0.341-0.341,0.496-0.528c0.038-0.046,0.077-0.09,0.113-0.137
	c0.166-0.214,0.312-0.441,0.443-0.679c0.014-0.026,0.028-0.051,0.042-0.077c0.137-0.26,0.251-0.53,0.344-0.813
	c0.003-0.009,0.005-0.017,0.008-0.026c0.095-0.296,0.164-0.6,0.205-0.916v-0.001v-0.001c0.029-0.222,0.068-0.442,0.068-0.672
	L320.759,466.322z"/>
<path d="M506.442,413.537L401.146,308.242c-3.585-3.585-8.35-5.558-13.42-5.558c-3.507,0-6.857,0.964-9.783,2.733l-59.154-59.154
	c-3.032-3.031-7.947-3.031-10.979,0c-3.031,3.031-3.031,7.947,0,10.978l58.748,58.748l-21.643,21.643L237.159,229.875l21.643-21.643
	l14.419,14.417c3.03,3.032,7.946,3.031,10.978,0c3.031-3.032,3.031-7.947-0.001-10.978l-14.418-14.417l37.521-37.521l2.969,2.969
	c3.687,3.688,8.591,5.719,13.808,5.719c5.216,0,10.119-2.031,13.808-5.719l13.83-13.83c3.687-3.688,5.719-8.592,5.719-13.807
	c0-5.216-2.032-10.12-5.719-13.807L245.599,15.14c-3.687-3.688-8.591-5.72-13.808-5.72c-5.216,0-10.119,2.031-13.806,5.719
	l-13.831,13.83c-3.688,3.688-5.72,8.591-5.72,13.808c0,5.215,2.032,10.119,5.719,13.807l2.969,2.969L88.48,178.196l-2.969-2.969
	c-7.613-7.612-20.001-7.612-27.614,0.001l-13.83,13.83c-3.687,3.688-5.719,8.592-5.719,13.807c0,5.216,2.032,10.12,5.719,13.807
	l106.115,106.116c3.688,3.688,8.592,5.719,13.808,5.719s10.119-2.031,13.807-5.719l13.831-13.83c0.001,0,0.001,0,0.001,0
	c7.611-7.613,7.612-20,0-27.614l-2.969-2.969l37.52-37.52l108.163,108.163c-1.769,2.926-2.733,6.276-2.733,9.783
	c0,5.069,1.974,9.835,5.558,13.42l105.295,105.295c3.585,3.585,8.35,5.558,13.421,5.558c5.069,0,9.834-1.974,13.42-5.558
	l37.138-37.138c3.584-3.584,5.558-8.35,5.558-13.42S510.026,417.121,506.442,413.537z M215.132,39.949l13.832-13.831
	c0.755-0.755,1.76-1.171,2.827-1.171c1.068,0,2.073,0.416,2.828,1.172l106.117,106.116c0.755,0.755,1.172,1.76,1.172,2.828
	c0,1.068-0.416,2.073-1.173,2.829l-13.829,13.83c-1.512,1.511-4.147,1.512-5.658,0.001L215.133,45.606
	c-0.756-0.756-1.173-1.76-1.173-2.829S214.377,40.705,215.132,39.949z M180.65,297.979l-13.832,13.83
	c-1.51,1.511-4.146,1.511-5.657,0L55.045,205.693c-0.755-0.755-1.172-1.76-1.172-2.828c0-1.068,0.416-2.073,1.173-2.829
	l13.829-13.83c0.78-0.78,1.804-1.17,2.829-1.17s2.049,0.39,2.828,1.17l106.116,106.115
	C182.208,293.882,182.208,296.418,180.65,297.979z M220.69,224.385c-0.001,0.001-0.001,0.001-0.002,0.002l-43.008,43.008
	l-78.222-78.221L218.101,70.533l78.221,78.221l-43.003,43.002c-0.003,0.003-0.006,0.005-0.009,0.008L220.69,224.385z
	 M495.462,429.398l-37.138,37.138c-0.879,0.88-1.906,1.011-2.44,1.011c-0.535,0-1.562-0.131-2.441-1.011L348.148,361.24
	c-0.88-0.88-1.012-1.907-1.012-2.441s0.131-1.561,1.012-2.441l2.258-2.258l0,0l34.879-34.88c0.879-0.88,1.906-1.011,2.441-1.011
	c0.534,0,1.561,0.131,2.44,1.011l105.296,105.295c0.88,0.88,1.012,1.907,1.012,2.441S496.342,428.518,495.462,429.398z"/>
<path d="M294.83,433.767h-11.894v-40.908c0-9.126-7.423-16.55-16.549-16.55H132.57c-4.288,0-7.763,3.476-7.763,7.763
	s3.475,7.763,7.763,7.763h133.817c0.564,0,1.023,0.459,1.023,1.023v40.908H61.141v-40.908c0-0.565,0.459-1.023,1.023-1.023h21.63
	c4.288,0,7.763-3.476,7.763-7.763s-3.475-7.763-7.763-7.763h-21.63c-9.126,0-16.549,7.424-16.549,16.55v40.908H33.721
	C15.127,433.767,0,448.895,0,467.488v22.103c0,7.162,5.826,12.988,12.988,12.988h302.575c7.162,0,12.988-5.826,12.988-12.988
	v-22.103C328.551,448.895,313.424,433.767,294.83,433.767z M313.025,487.053H15.526v-19.565c0-10.032,8.162-18.195,18.195-18.195
	h19.657h221.795h19.657c10.032,0,18.195,8.162,18.195,18.195L313.025,487.053L313.025,487.053z"/>
<g>
</g>
<g>
</g>
<g>
</g>
<g>
</g>
<g>
</g>
<g>
</g>
<g>
</g>
<g>
</g>
<g>
</g>
<g>
</g>
<g>
</g>
<g>
</g>
<g>
</g>
<g>
</g>
<g>
</g>
</svg>
