<svg viewBox="-33 0 512 512.00104" xmlns="http://www.w3.org/2000/svg"><g fill-rule="evenodd"><path d="m265.609375 352.039062v149.925782h-85.890625v-149.925782c-59.074219-18.28125-101.992188-73.359374-101.992188-138.445312 0-11.90625 9.640626-21.542969 21.515626-21.542969 11.90625 0 21.546874 9.636719 21.546874 21.542969 0 56.269531 45.609376 101.878906 101.875 101.878906 56.269532 0 101.878907-45.609375 101.878907-101.878906 0-11.90625 9.640625-21.542969 21.515625-21.542969 11.878906 0 21.515625 9.636719 21.515625 21.542969 0 65.082031-42.886719 120.160156-101.964844 138.445312zm-42.945313-196.980468c32.316407 0 58.507813 26.191406 58.507813 58.535156 0 32.316406-26.191406 58.507812-58.507813 58.507812-32.34375 0-58.535156-26.191406-58.535156-58.507812 0-32.34375 26.191406-58.535156 58.535156-58.535156zm0 0" fill="#fede94"/><path d="m222.664062 27.554688 8.164063-8.164063c12.472656-12.472656 32.882813-12.472656 45.355469 0s12.472656 32.910156 0 45.382813c-17.828125 17.828124-35.6875 35.6875-53.519532 53.519531-17.855468-17.832031-35.6875-35.691407-53.546874-53.519531-12.472657-12.472657-12.472657-32.910157 0-45.382813 12.472656-12.472656 32.882812-12.472656 45.382812 0zm0 0" fill="#ef685e"/><path d="m372.449219 72.566406 8.164062-8.164062c12.472657-12.472656 32.882813-12.472656 45.355469 0 12.5 12.472656 12.5 32.882812 0 45.386718-17.832031 17.828126-35.6875 35.6875-53.519531 53.515626-17.859375-17.828126-35.6875-35.6875-53.546875-53.515626-12.472656-12.503906-12.472656-32.914062 0-45.386718s32.910156-12.472656 45.382812 0zm0 0" fill="#ef685e"/><path d="m72.878906 72.566406 8.164063-8.164062c12.472656-12.472656 32.882812-12.472656 45.355469 0 12.472656 12.472656 12.472656 32.882812 0 45.386718-17.832032 17.828126-35.6875 35.6875-53.519532 53.515626-17.859375-17.828126-35.6875-35.6875-53.546875-53.515626-12.472656-12.503906-12.472656-32.914062 0-45.386718 12.472657-12.472656 32.882813-12.472656 45.382813 0zm0 0" fill="#ef685e"/></g><path d="m275.644531 359.210938v142.753906c0 5.558594-4.507812 10.035156-10.035156 10.035156h-85.890625c-5.554688 0-10.035156-4.476562-10.035156-10.035156v-33.929688c0-5.980468 3.773437-10.828125 10.035156-10.828125 5.867188 0 9.980469 4.988281 10.035156 10.828125v23.894532h65.820313l.027343-139.890626c-.027343-4.28125 2.75-8.25 7.058594-9.554687 27.808594-8.617187 51.792969-26.019531 68.6875-48.953125 16.46875-22.363281 26.191406-50.003906 26.191406-79.9375 0-3.175781-1.277343-6.066406-3.347656-8.136719-2.097656-2.066406-4.960937-3.371093-8.132812-3.371093-3.175782 0-6.039063 1.304687-8.136719 3.371093-2.070313 2.070313-3.34375 4.960938-3.34375 8.136719 0 30.898438-12.53125 58.875-32.796875 79.117188-20.242188 20.265624-48.21875 32.796874-79.117188 32.796874-30.898437 0-58.875-12.53125-79.144531-32.796874-20.242187-20.242188-32.769531-48.21875-32.769531-79.117188 0-3.175781-1.304688-6.066406-3.375-8.136719-2.066406-2.066406-4.960938-3.371093-8.132812-3.371093-3.175782 0-6.039063 1.304687-8.109376 3.371093-2.097656 2.070313-3.371093 4.960938-3.371093 8.136719 0 29.933594 9.722656 57.574219 26.191406 79.9375 16.753906 22.734375 40.476563 40.054688 68.003906 48.730469 4.480469 1.019531 7.796875 5.015625 7.796875 9.777343v33.929688c0 5.984375-3.773437 10.859375-10.035156 10.859375-5.867188 0-10.488281-5.019531-10.035156-10.859375v-26.757812c-28.972656-10.542969-53.917969-29.480469-71.859375-53.859376-18.9375-25.679687-30.132813-57.429687-30.132813-91.757812 0-8.730469 3.542969-16.609375 9.242188-22.335938 5.726562-5.699218 13.605468-9.242187 22.308594-9.242187 8.730468 0 16.609374 3.542969 22.335937 9.242187 5.699219 5.726563 9.242187 13.605469 9.242187 22.335938 0 25.34375 10.261719 48.304688 26.898438 64.945312 16.613281 16.609376 39.574219 26.898438 64.945312 26.898438 25.339844 0 48.300782-10.289062 64.941407-26.898438 16.609375-16.640624 26.898437-39.601562 26.898437-64.945312 0-8.730469 3.515625-16.609375 9.242188-22.335938 5.699218-5.699218 13.605468-9.242187 22.308594-9.242187 8.703124 0 16.613281 3.542969 22.308593 9.242187 5.726563 5.726563 9.242188 13.605469 9.242188 22.335938 0 34.328125-11.167969 66.078125-30.105469 91.757812-17.96875 24.378907-42.882812 43.316407-71.855469 53.859376zm-105.988281 67.804687c0-5.554687 4.507812-10.0625 10.0625-10.0625 5.558594 0 10.066406 4.507813 10.066406 10.0625s-4.507812 10.0625-10.066406 10.0625c-5.554688 0-10.0625-4.507813-10.0625-10.0625zm-96.777344-368.621094 1.050782-1.078125c8.21875-8.191406 18.992187-12.300781 29.792968-12.300781 10.769532 0 21.570313 4.109375 29.765625 12.300781 16.382813 16.359375 16.382813 43.171875 0 59.558594l-53.519531 53.519531c-3.910156 3.9375-10.261719 3.9375-14.203125 0l-53.519531-53.519531c-16.328125-16.328125-16.328125-43.257812 0-59.558594 8.191406-8.191406 18.992187-12.300781 29.765625-12.300781 10.800781 0 21.601562 4.109375 29.792969 12.300781zm15.25 13.097657-8.164062 8.160156c-3.910156 3.941406-10.257813 3.941406-14.199219 0l-8.164063-8.160156c-4.28125-4.28125-9.921874-6.410157-15.589843-6.410157-5.640625 0-11.3125 2.128907-15.589844 6.410157-8.507813 8.53125-8.507813 22.675781 0 31.179687l46.457031 46.460937 46.433594-46.460937c8.589844-8.5625 8.589844-22.59375 0-31.179687-4.28125-4.28125-9.921875-6.410157-15.589844-6.410157-5.671875.003907-11.3125 2.128907-15.59375 6.410157zm284.320313-13.097657 1.078125-1.078125c16.355468-16.382812 43.171875-16.382812 59.554687 0 16.355469 16.359375 16.355469 43.171875 0 59.558594l-53.546875 53.519531c-3.910156 3.9375-10.261718 3.9375-14.171875 0l-53.546875-53.519531c-16.328125-16.328125-16.328125-43.257812 0-59.558594 8.191406-8.191406 18.992188-12.300781 29.761719-12.300781 10.800781 0 21.601563 4.109375 29.792969 12.300781zm15.25 13.097657-8.164063 8.160156c-3.910156 3.941406-10.261718 3.941406-14.171875 0l-8.191406-8.160156c-4.28125-4.28125-9.921875-6.410157-15.59375-6.410157-5.640625 0-11.308594 2.128907-15.558594 6.410157-8.535156 8.53125-8.535156 22.675781-.03125 31.179687l46.460938 46.460937 46.433593-46.460937c8.589844-8.5625 8.589844-22.59375 0-31.179687-8.5625-8.5625-22.59375-8.5625-31.183593 0zm-165.035157-58.113282 1.078126-1.074218c8.191406-8.195313 18.992187-12.304688 29.761718-12.304688 10.800782 0 21.574219 4.109375 29.792969 12.304688 8.191406 8.191406 12.273437 18.992187 12.273437 29.761718 0 10.800782-4.082031 21.601563-12.273437 29.792969l-53.546875 53.546875c-3.910156 3.914062-10.261719 3.914062-14.199219 0l-53.519531-53.546875c-16.386719-16.382813-16.386719-43.171875 0-59.554687 8.191406-8.195313 18.992188-12.304688 29.765625-12.304688 10.796875 0 21.597656 4.109375 29.789063 12.304688zm15.25 13.097656-8.160156 8.191407c-3.914062 3.914062-10.261718 3.914062-14.203125 0l-8.164062-8.191407c-4.28125-4.253906-9.921875-6.40625-15.589844-6.40625-5.640625 0-11.3125 2.152344-15.59375 6.40625-8.558594 8.589844-8.558594 22.621094 0 31.179688l46.460937 46.460938 46.433594-46.460938c4.28125-4.277344 6.40625-9.917969 6.40625-15.589844 0-5.640625-2.125-11.308594-6.40625-15.589844-4.28125-4.253906-9.921875-6.40625-15.589844-6.40625-5.671874 0-11.3125 2.152344-15.59375 6.40625zm-15.25 118.546876c18.9375 0 36.058594 7.679687 48.476563 20.097656 12.414063 12.386718 20.066406 29.535156 20.066406 48.472656s-7.652343 36.058594-20.066406 48.472656c-12.417969 12.414063-29.539063 20.070313-48.476563 20.070313-18.933593 0-36.085937-7.652344-48.472656-20.070313-12.414062-12.414062-20.097656-29.535156-20.097656-48.472656s7.683594-36.085938 20.097656-48.472656c12.386719-12.417969 29.539063-20.097656 48.472656-20.097656zm34.273438 34.269531c-8.761719-8.757813-20.894531-14.199219-34.273438-14.199219-13.40625 0-25.511718 5.441406-34.296874 14.199219-8.761719 8.789062-14.203126 20.894531-14.203126 34.300781 0 13.378906 5.441407 25.511719 14.203126 34.269531 8.785156 8.789063 20.890624 14.203125 34.296874 14.203125 13.382813 0 25.511719-5.414062 34.273438-14.203125 8.785156-8.757812 14.199219-20.890625 14.199219-34.269531 0-13.410156-5.414063-25.511719-14.199219-34.300781zm0 0"/></svg>