<?xml version="1.0" standalone="no"?><svg xmlns="http://www.w3.org/2000/svg" viewBox="0 0 1440 320"><path fill="#000b76" fill-opacity="1" d="M0,32L34.3,58.7C68.6,85,137,139,206,154.7C274.3,171,343,149,411,128C480,107,549,85,617,85.3C685.7,85,754,107,823,144C891.4,181,960,235,1029,266.7C1097.1,299,1166,309,1234,277.3C1302.9,245,1371,171,1406,133.3L1440,96L1440,320L1405.7,320C1371.4,320,1303,320,1234,320C1165.7,320,1097,320,1029,320C960,320,891,320,823,320C754.3,320,686,320,617,320C548.6,320,480,320,411,320C342.9,320,274,320,206,320C137.1,320,69,320,34,320L0,320Z"></path></svg>